<svg width="912" height="462" viewBox="0 0 912 462" fill="none" xmlns="http://www.w3.org/2000/svg">
<rect y="0.348145" width="912" height="461" rx="32" fill="#38F4E2" fill-opacity="0.4"/>
<g opacity="0.6">
<g clip-path="url(#clip0_295_407)">
<path fill-rule="evenodd" clip-rule="evenodd" d="M93.7815 296.31C93.7815 303.479 91.6014 308.102 87.3008 310.05C78.5722 314.003 65.7985 303.4 63.3256 301.234L68.6834 295.12C73.8352 299.618 81.3697 303.815 83.9449 302.646C84.769 302.272 85.6493 300.411 85.6493 296.31L93.7815 296.31Z" fill="#F5F0EA"/>
<path fill-rule="evenodd" clip-rule="evenodd" d="M212.137 428.31L207.107 421.922C215.703 415.163 221.363 419.599 224.745 422.25C227.52 424.424 227.999 424.498 229.21 423.902C231.179 422.934 231.8 421.626 232.815 419.206C234.155 416.007 236.182 411.174 243.827 410.873L244.146 418.996C241.68 419.092 241.471 419.589 240.315 422.347C239.167 425.085 237.594 428.837 232.8 431.194C226.765 434.161 222.359 430.709 219.727 428.645C216.643 426.228 215.711 425.498 212.137 428.31Z" fill="#EC7C54"/>
<path fill-rule="evenodd" clip-rule="evenodd" d="M104.337 363.568C104.337 368.763 103.092 372.418 100.538 374.729C96.8272 378.087 91.8286 377.485 87.4188 376.954C84.5339 376.608 81.5521 376.249 79.8958 377.133C79.7637 377.787 80.0172 379.499 80.171 380.549C80.8161 384.926 82.1593 394.031 69.8322 396.044L68.5222 388.022C72.9469 387.301 72.8208 386.452 72.1255 381.734C71.6105 378.25 70.8338 372.981 75.7322 370.147C79.719 367.842 84.3259 368.396 88.3906 368.885C90.9428 369.192 94.1178 369.574 95.0801 368.704C95.3647 368.447 96.2809 367.276 96.1996 363.038L104.33 362.871C104.335 363.106 104.337 363.339 104.337 363.568Z" fill="#9696FF"/>
<path fill-rule="evenodd" clip-rule="evenodd" d="M262.062 118.894C262.062 122.247 261.237 125.093 259.586 127.408C255.679 132.884 249.045 132.852 248.302 132.83L248.538 124.706L248.42 128.768L248.493 124.704C248.524 124.704 251.568 124.698 252.992 122.651C254.532 120.433 254.185 116.05 252.014 110.306L259.621 107.432C261.248 111.737 262.062 115.566 262.062 118.894Z" fill="#EC7C54"/>
<path fill-rule="evenodd" clip-rule="evenodd" d="M329.534 53.1791C329.534 54.8039 329.293 56.6862 328.753 58.8901L320.854 56.9557C322.139 51.7194 321.45 51.3076 318.554 49.5812C314.593 47.2194 308.608 43.6507 308.608 29.9568L316.74 29.9568C316.74 39.0355 319.511 40.6881 322.72 42.6015C326.336 44.7574 329.534 47.2628 329.534 53.1791Z" fill="#F5F0EA"/>
<path fill-rule="evenodd" clip-rule="evenodd" d="M85.9616 169.551C85.54 169.479 84.1189 169.435 82.977 169.4C76.1731 169.188 66.8549 168.898 64.565 162.86C62.5218 157.475 68.0076 152.308 69.8096 150.61C72.4939 148.085 73.6636 145.665 73.0245 143.974C72.3597 142.216 69.8353 140.872 67.0216 140.777L67.2947 132.654C73.44 132.86 78.7998 136.255 80.6322 141.102C81.7233 143.989 82.4857 149.835 75.3876 156.525C73.5619 158.244 72.7901 159.365 72.4682 159.956C74.6611 161.009 81.0124 161.207 83.2298 161.276C85.046 161.332 86.358 161.373 87.3366 161.541L85.9616 169.551Z" fill="#9696FF"/>
<path fill-rule="evenodd" clip-rule="evenodd" d="M244.397 43.8776C244.397 49.0733 243.152 52.7274 240.598 55.0384C236.887 58.3965 231.888 57.795 227.479 57.264C224.594 56.9179 221.612 56.5582 219.956 57.4421C219.824 58.0964 220.077 59.8087 220.231 60.8585C220.876 65.2353 222.219 74.341 209.892 76.354L208.582 68.3319C213.007 67.6106 212.881 66.7619 212.185 62.0438C211.67 58.5597 210.894 53.2909 215.792 50.4577C219.779 48.1515 224.386 48.7062 228.45 49.1945C231.003 49.5013 234.178 49.884 235.14 49.0137C235.425 48.7563 236.341 47.5852 236.259 43.3473L244.39 43.1807C244.394 43.4157 244.397 43.6487 244.397 43.8776Z" fill="#18FFE8"/>
<path fill-rule="evenodd" clip-rule="evenodd" d="M422.557 63.1406C422.467 63.3906 422.368 63.64 422.261 63.8911L415.866 61.1121C416.344 59.9881 416.465 58.9969 416.176 58.4771C415.83 57.8501 414.62 57.3273 412.94 57.0779C410.644 56.7378 409.161 55.7215 408.53 54.0571C407.56 51.4982 409.253 49.4516 410.612 47.8089C412.269 45.8079 413.038 44.6306 412.645 43.7501C412.439 43.2906 410.553 43.2794 409.177 43.2707C405.675 43.2484 398.389 43.2045 397.537 34.0701L404.47 33.4121C404.712 36.0079 405.067 36.2198 409.22 36.2456C412.297 36.2643 416.948 36.293 418.991 40.8593C420.838 44.986 418.879 48.519 417.091 50.8935C419.468 51.75 421.2 53.1415 422.257 55.053C423.525 57.3437 423.625 60.1912 422.557 63.1406Z" fill="#EC7C54"/>
<path fill-rule="evenodd" clip-rule="evenodd" d="M50.7443 242.081L49.7813 250.151C38.9207 248.856 38.0574 241.72 37.541 237.455C37.1174 233.956 36.8301 233.566 35.5519 233.131C33.4755 232.424 32.1107 232.91 29.6812 233.905C26.4703 235.219 21.618 237.205 16 232.014L21.5205 226.045C23.3326 227.72 23.832 227.516 26.6004 226.383C29.3498 225.257 33.1163 223.717 38.1739 225.438C44.5401 227.604 45.2124 233.16 45.6142 236.479C46.0845 240.368 46.2269 241.542 50.7443 242.081Z" fill="#18FFE8"/>
<path fill-rule="evenodd" clip-rule="evenodd" d="M110.732 79.9407C110.732 80.7196 110.67 81.5419 110.54 82.4136L102.497 81.2141C103.062 77.4313 101.432 76.223 95.1207 73.7284C90.8919 72.0568 86.1 70.1624 84.5867 65.2803C83.4021 61.4637 84.6484 57.0212 88.5098 51.2966L95.2521 55.8407C91.9403 60.7505 92.2567 62.5637 92.3543 62.8752C92.7142 64.0368 95.7068 65.2194 98.1113 66.1703C102.93 68.0742 110.732 71.1594 110.732 79.9407Z" fill="#9696FF"/>
<path fill-rule="evenodd" clip-rule="evenodd" d="M222.874 200.506C222.979 200.217 223.095 199.929 223.22 199.638L230.688 202.853C230.13 204.154 229.989 205.301 230.326 205.902C230.73 206.627 232.143 207.232 234.105 207.521C236.787 207.914 238.519 209.09 239.255 211.016C240.388 213.976 238.411 216.344 236.823 218.245C234.889 220.56 233.991 221.922 234.45 222.94C234.69 223.472 236.892 223.485 238.5 223.495C242.589 223.521 251.098 223.572 252.093 234.14L243.997 234.901C243.714 231.898 243.299 231.653 238.45 231.623C234.856 231.601 229.425 231.568 227.039 226.285C224.882 221.511 227.169 217.423 229.258 214.676C226.481 213.685 224.459 212.075 223.224 209.864C221.744 207.213 221.627 203.919 222.874 200.506Z" fill="#FFBFA0"/>
</g>
<g clip-path="url(#clip1_295_407)">
<path fill-rule="evenodd" clip-rule="evenodd" d="M738.139 147.591C738.139 140.422 740.319 135.799 744.62 133.851C753.348 129.898 766.122 140.501 768.595 142.667L763.237 148.781C758.086 144.283 750.551 140.086 747.976 141.255C747.152 141.629 746.271 143.49 746.271 147.591L738.139 147.591Z" fill="#F5F0EA"/>
<path fill-rule="evenodd" clip-rule="evenodd" d="M699.863 33.3861L704.893 39.7738C696.297 46.5334 690.637 42.097 687.255 39.4467C684.48 37.2718 684.001 37.1987 682.79 37.7947C680.821 38.7626 680.2 40.0705 679.185 42.4905C677.845 45.6895 675.818 50.5228 668.174 50.8228L667.854 42.7005C670.32 42.6043 670.529 42.1072 671.685 39.3492C672.833 36.6108 674.406 32.8592 679.2 30.5021C685.235 27.5348 689.641 30.9878 692.273 33.0508C695.358 35.4682 696.289 36.1983 699.863 33.3861Z" fill="#EC7C54"/>
<path fill-rule="evenodd" clip-rule="evenodd" d="M834.356 80.3328C834.356 75.1379 835.602 71.4831 838.155 69.1721C841.866 65.814 846.865 66.4161 851.274 66.9465C854.159 67.2932 857.141 67.6522 858.797 66.7683C858.93 66.114 858.676 64.4018 858.522 63.352C857.877 58.9752 856.534 49.8694 868.861 47.8564L870.171 55.8785C865.746 56.5999 865.872 57.4485 866.568 62.1667C867.083 65.6508 867.859 70.9196 862.961 73.7534C858.974 76.059 854.367 75.505 850.303 75.0159C847.75 74.7091 844.575 74.3264 843.613 75.1968C843.328 75.4542 842.412 76.6252 842.494 80.8632L834.363 81.0298C834.359 80.7947 834.356 80.5618 834.356 80.3328Z" fill="#9696FF"/>
<path fill-rule="evenodd" clip-rule="evenodd" d="M609.898 158.175C609.898 154.822 610.723 151.976 612.374 149.661C616.281 144.185 622.915 144.217 623.658 144.239L623.422 152.363L623.54 148.301L623.467 152.364C623.437 152.364 620.393 152.371 618.969 154.418C617.428 156.635 617.775 161.019 619.946 166.763L612.339 169.636C610.712 165.331 609.898 161.503 609.898 158.175Z" fill="#EC7C54"/>
<path fill-rule="evenodd" clip-rule="evenodd" d="M827.153 392.946C827.153 391.321 827.394 389.439 827.934 387.235L835.833 389.169C834.548 394.406 835.237 394.817 838.133 396.544C842.094 398.906 848.079 402.474 848.079 416.168L839.947 416.168C839.947 407.09 837.176 405.437 833.967 403.523C830.351 401.368 827.153 398.862 827.153 392.946Z" fill="#F5F0EA"/>
<path fill-rule="evenodd" clip-rule="evenodd" d="M826.039 292.145C826.46 292.217 827.881 292.261 829.023 292.297C835.827 292.508 845.145 292.799 847.435 298.836C849.478 304.221 843.992 309.388 842.19 311.086C839.506 313.611 838.336 316.032 838.976 317.722C839.64 319.481 842.165 320.824 844.978 320.919L844.705 329.042C838.56 328.836 833.2 325.441 831.368 320.594C830.277 317.707 829.514 311.861 836.612 305.171C838.438 303.452 839.21 302.332 839.532 301.74C837.339 300.687 830.988 300.489 828.77 300.42C826.954 300.364 825.642 300.323 824.663 300.156L826.039 292.145Z" fill="#9696FF"/>
<path fill-rule="evenodd" clip-rule="evenodd" d="M667.603 417.819C667.603 412.623 668.848 408.969 671.402 406.658C675.113 403.3 680.112 403.901 684.521 404.432C687.406 404.778 690.388 405.138 692.044 404.254C692.176 403.6 691.923 401.888 691.769 400.838C691.124 396.461 689.781 387.355 702.108 385.342L703.418 393.364C698.993 394.086 699.119 394.934 699.815 399.652C700.33 403.137 701.106 408.405 696.208 411.239C692.221 413.545 687.614 412.99 683.55 412.502C680.997 412.195 677.822 411.812 676.86 412.683C676.575 412.94 675.659 414.111 675.741 418.349L667.61 418.516C667.606 418.281 667.603 418.048 667.603 417.819Z" fill="#18FFE8"/>
<path fill-rule="evenodd" clip-rule="evenodd" d="M489.443 398.556C489.533 398.306 489.632 398.056 489.739 397.805L496.134 400.584C495.656 401.708 495.535 402.699 495.824 403.219C496.17 403.846 497.38 404.369 499.06 404.618C501.356 404.958 502.84 405.975 503.47 407.639C504.44 410.198 502.747 412.245 501.388 413.887C499.731 415.888 498.962 417.066 499.355 417.946C499.561 418.406 501.447 418.417 502.823 418.426C506.325 418.448 513.611 418.492 514.463 427.626L507.53 428.284C507.288 425.688 506.933 425.476 502.78 425.451C499.703 425.432 495.053 425.403 493.009 420.837C491.162 416.71 493.121 413.177 494.909 410.803C492.532 409.946 490.8 408.555 489.743 406.643C488.476 404.353 488.375 401.505 489.443 398.556Z" fill="#EC7C54"/>
<path fill-rule="evenodd" clip-rule="evenodd" d="M861.256 219.616L862.219 211.545C873.079 212.84 873.943 219.977 874.459 224.241C874.883 227.74 875.17 228.13 876.448 228.565C878.525 229.272 879.889 228.786 882.319 227.792C885.53 226.478 890.382 224.492 896 229.682L890.48 235.651C888.667 233.976 888.168 234.181 885.4 235.314C882.65 236.439 878.884 237.98 873.826 236.259C867.46 234.092 866.788 228.537 866.386 225.217C865.916 221.328 865.773 220.154 861.256 219.616Z" fill="#18FFE8"/>
<path fill-rule="evenodd" clip-rule="evenodd" d="M745.658 341.716C745.658 340.937 745.719 340.114 745.849 339.243L753.893 340.442C753.328 344.225 754.957 345.433 761.269 347.928C765.498 349.599 770.289 351.494 771.803 356.376C772.987 360.193 771.741 364.635 767.88 370.36L761.137 365.816C764.449 360.906 764.133 359.093 764.035 358.781C763.675 357.619 760.683 356.437 758.278 355.486C753.46 353.582 745.658 350.497 745.658 341.716Z" fill="#9696FF"/>
</g>
</g>
<defs>
<clipPath id="clip0_295_407">
<rect width="403" height="492" fill="white" transform="translate(16 432.348) rotate(-90)"/>
</clipPath>
<clipPath id="clip1_295_407">
<rect width="403" height="492" fill="white" transform="translate(896 29.3481) rotate(90)"/>
</clipPath>
</defs>
</svg>
