<svg width="24" height="24" viewBox="0 0 24 24" fill="none" xmlns="http://www.w3.org/2000/svg">
<path d="M17.1793 1.7915H7.19399C4.43663 1.7915 2.20135 4.00178 2.20135 6.7283V16.6019C2.20135 19.3284 4.43663 21.5387 7.19399 21.5387H17.1793C19.9366 21.5387 22.1719 19.3284 22.1719 16.6019V6.7283C22.1719 4.00178 19.9366 1.7915 17.1793 1.7915Z" stroke="#143D32" stroke-width="3" stroke-linecap="round" stroke-linejoin="round"/>
<path d="M16.1806 11.0435C16.3038 11.8652 16.1619 12.7044 15.7749 13.4418C15.388 14.1791 14.7758 14.7771 14.0254 15.1505C13.275 15.524 12.4246 15.654 11.5951 15.5221C10.7657 15.3901 9.99946 15.0028 9.40542 14.4154C8.81137 13.828 8.41976 13.0704 8.2863 12.2502C8.15283 11.4301 8.2843 10.5892 8.662 9.84715C9.0397 9.10513 9.64441 8.49977 10.3901 8.11717C11.1358 7.73457 11.9845 7.59421 12.8155 7.71606C13.6632 7.84036 14.448 8.23093 15.0539 8.83011C15.6599 9.42928 16.0549 10.2053 16.1806 11.0435Z" stroke="#143D32" stroke-width="3" stroke-linecap="round" stroke-linejoin="round"/>
<path d="M17.6786 6.23486H17.6885" stroke="#143D32" stroke-width="3" stroke-linecap="round" stroke-linejoin="round"/>
</svg>
