<svg width="23" height="19" viewBox="0 0 23 19" fill="none" xmlns="http://www.w3.org/2000/svg">
<path d="M22.7014 0.816569C21.7452 1.48351 20.6865 1.99361 19.566 2.32723C18.9646 1.64349 18.1654 1.15888 17.2764 0.938929C16.3874 0.718979 15.4516 0.774306 14.5954 1.09743C13.7393 1.42055 13.0041 1.99587 12.4894 2.74559C11.9747 3.4953 11.7053 4.38324 11.7176 5.2893V6.27666C9.96281 6.32165 8.22402 5.93683 6.65606 5.15645C5.08811 4.37607 3.73968 3.22438 2.73085 1.80393C2.73085 1.80393 -1.26326 10.6902 7.72348 14.6396C5.66704 16.0199 3.21729 16.712 0.733795 16.6143C9.72053 21.5511 20.7043 16.6143 20.7043 5.25968C20.7034 4.98466 20.6767 4.71031 20.6244 4.44017C21.6435 3.44639 22.3627 2.19168 22.7014 0.816569Z" fill="#143D32"/>
</svg>
